<mxfile host="Electron" agent="Mozilla/5.0 (Windows NT 10.0; Win64; x64) AppleWebKit/537.36 (KHTML, like Gecko) draw.io/24.7.17 Chrome/128.0.6613.36 Electron/32.0.1 Safari/537.36" version="24.7.17">
  <diagram name="Page-1" id="FezRbKXWssPr9vuA7EPJ">
    <mxGraphModel dx="1877" dy="621" grid="0" gridSize="10" guides="1" tooltips="1" connect="1" arrows="1" fold="1" page="1" pageScale="1" pageWidth="827" pageHeight="1169" math="0" shadow="0">
      <root>
        <mxCell id="0" />
        <mxCell id="1" parent="0" />
        <mxCell id="qvUMem5sqrkyn1ycQyFO-1" value="Production Associate&lt;div&gt;(Worker)&lt;/div&gt;" style="shape=umlActor;verticalLabelPosition=bottom;verticalAlign=top;html=1;outlineConnect=0;" vertex="1" parent="1">
          <mxGeometry x="-770" y="208" width="30" height="60" as="geometry" />
        </mxCell>
        <mxCell id="qvUMem5sqrkyn1ycQyFO-2" value="Head of Production&lt;div&gt;(Management)&lt;/div&gt;" style="shape=umlActor;verticalLabelPosition=bottom;verticalAlign=top;html=1;outlineConnect=0;" vertex="1" parent="1">
          <mxGeometry x="-770" y="420" width="30" height="60" as="geometry" />
        </mxCell>
        <mxCell id="qvUMem5sqrkyn1ycQyFO-8" value="View Traveller Revisions" style="ellipse;whiteSpace=wrap;html=1;rotation=0;" vertex="1" parent="1">
          <mxGeometry x="-670" y="410" width="110" height="60" as="geometry" />
        </mxCell>
        <mxCell id="qvUMem5sqrkyn1ycQyFO-9" value="View Database" style="ellipse;whiteSpace=wrap;html=1;rotation=0;" vertex="1" parent="1">
          <mxGeometry x="-674" y="324" width="110" height="60" as="geometry" />
        </mxCell>
        <mxCell id="qvUMem5sqrkyn1ycQyFO-10" value="View Travellers" style="ellipse;whiteSpace=wrap;html=1;rotation=0;" vertex="1" parent="1">
          <mxGeometry x="-680" y="168" width="110" height="60" as="geometry" />
        </mxCell>
        <mxCell id="qvUMem5sqrkyn1ycQyFO-13" value="Add Edited Traveller Sheet" style="ellipse;whiteSpace=wrap;html=1;rotation=0;" vertex="1" parent="1">
          <mxGeometry x="-504" y="83" width="110" height="60" as="geometry" />
        </mxCell>
        <mxCell id="qvUMem5sqrkyn1ycQyFO-14" value="Remove Edited Traveller Sheet" style="ellipse;whiteSpace=wrap;html=1;rotation=0;" vertex="1" parent="1">
          <mxGeometry x="-504" y="186" width="110" height="60" as="geometry" />
        </mxCell>
        <mxCell id="qvUMem5sqrkyn1ycQyFO-15" value="&amp;lt;&amp;lt;extend&amp;gt;&amp;gt;" style="html=1;verticalAlign=bottom;labelBackgroundColor=none;endArrow=open;endFill=0;dashed=1;rounded=0;entryX=0;entryY=0.5;entryDx=0;entryDy=0;exitX=0.696;exitY=0.03;exitDx=0;exitDy=0;exitPerimeter=0;" edge="1" parent="1" source="qvUMem5sqrkyn1ycQyFO-10" target="qvUMem5sqrkyn1ycQyFO-13">
          <mxGeometry x="0.1011" y="-32" width="160" relative="1" as="geometry">
            <mxPoint x="-705" y="138" as="sourcePoint" />
            <mxPoint x="-545" y="138" as="targetPoint" />
            <mxPoint as="offset" />
          </mxGeometry>
        </mxCell>
        <mxCell id="qvUMem5sqrkyn1ycQyFO-16" value="&amp;lt;&amp;lt;extend&amp;gt;&amp;gt;" style="html=1;verticalAlign=bottom;labelBackgroundColor=none;endArrow=open;endFill=0;dashed=1;rounded=0;entryX=0;entryY=0.5;entryDx=0;entryDy=0;exitX=1;exitY=0.5;exitDx=0;exitDy=0;" edge="1" parent="1" source="qvUMem5sqrkyn1ycQyFO-10" target="qvUMem5sqrkyn1ycQyFO-14">
          <mxGeometry x="0.1103" y="5" width="160" relative="1" as="geometry">
            <mxPoint x="-790" y="88" as="sourcePoint" />
            <mxPoint x="-630" y="88" as="targetPoint" />
            <mxPoint as="offset" />
          </mxGeometry>
        </mxCell>
        <mxCell id="qvUMem5sqrkyn1ycQyFO-17" value="" style="endArrow=none;html=1;rounded=0;entryX=0.02;entryY=0.67;entryDx=0;entryDy=0;entryPerimeter=0;" edge="1" parent="1" target="qvUMem5sqrkyn1ycQyFO-10">
          <mxGeometry width="50" height="50" relative="1" as="geometry">
            <mxPoint x="-740" y="228" as="sourcePoint" />
            <mxPoint x="-680" y="218" as="targetPoint" />
          </mxGeometry>
        </mxCell>
        <mxCell id="qvUMem5sqrkyn1ycQyFO-18" value="" style="endArrow=none;html=1;rounded=0;entryX=0.049;entryY=0.683;entryDx=0;entryDy=0;entryPerimeter=0;" edge="1" parent="1" target="qvUMem5sqrkyn1ycQyFO-9">
          <mxGeometry width="50" height="50" relative="1" as="geometry">
            <mxPoint x="-740" y="436" as="sourcePoint" />
            <mxPoint x="-750" y="360" as="targetPoint" />
          </mxGeometry>
        </mxCell>
        <mxCell id="qvUMem5sqrkyn1ycQyFO-19" value="" style="endArrow=none;html=1;rounded=0;exitX=1;exitY=0.3333333333333333;exitDx=0;exitDy=0;exitPerimeter=0;entryX=0;entryY=0.5;entryDx=0;entryDy=0;" edge="1" parent="1" source="qvUMem5sqrkyn1ycQyFO-2" target="qvUMem5sqrkyn1ycQyFO-8">
          <mxGeometry width="50" height="50" relative="1" as="geometry">
            <mxPoint x="-700" y="460" as="sourcePoint" />
            <mxPoint x="-690" y="440" as="targetPoint" />
          </mxGeometry>
        </mxCell>
        <mxCell id="qvUMem5sqrkyn1ycQyFO-22" value="Update Listing" style="ellipse;whiteSpace=wrap;html=1;rotation=0;" vertex="1" parent="1">
          <mxGeometry x="-329" y="138" width="110" height="60" as="geometry" />
        </mxCell>
        <mxCell id="qvUMem5sqrkyn1ycQyFO-23" value="&amp;lt;&amp;lt;include&amp;gt;&amp;gt;" style="html=1;verticalAlign=bottom;labelBackgroundColor=none;endArrow=open;endFill=0;dashed=1;rounded=0;exitX=1;exitY=1;exitDx=0;exitDy=0;entryX=0;entryY=0;entryDx=0;entryDy=0;" edge="1" parent="1" source="qvUMem5sqrkyn1ycQyFO-13" target="qvUMem5sqrkyn1ycQyFO-22">
          <mxGeometry width="160" relative="1" as="geometry">
            <mxPoint x="-516" y="10" as="sourcePoint" />
            <mxPoint x="-356" y="10" as="targetPoint" />
          </mxGeometry>
        </mxCell>
        <mxCell id="qvUMem5sqrkyn1ycQyFO-24" value="&amp;lt;&amp;lt;include&amp;gt;&amp;gt;" style="html=1;verticalAlign=bottom;labelBackgroundColor=none;endArrow=open;endFill=0;dashed=1;rounded=0;exitX=1;exitY=0;exitDx=0;exitDy=0;entryX=0;entryY=1;entryDx=0;entryDy=0;" edge="1" parent="1" source="qvUMem5sqrkyn1ycQyFO-14" target="qvUMem5sqrkyn1ycQyFO-22">
          <mxGeometry x="-0.2205" y="7" width="160" relative="1" as="geometry">
            <mxPoint x="-340" y="118" as="sourcePoint" />
            <mxPoint x="-222" y="119" as="targetPoint" />
            <mxPoint as="offset" />
          </mxGeometry>
        </mxCell>
        <mxCell id="qvUMem5sqrkyn1ycQyFO-25" value="Export To Excel" style="ellipse;whiteSpace=wrap;html=1;rotation=0;" vertex="1" parent="1">
          <mxGeometry x="-490" y="283" width="110" height="60" as="geometry" />
        </mxCell>
        <mxCell id="qvUMem5sqrkyn1ycQyFO-26" value="Add Traveller Revision" style="ellipse;whiteSpace=wrap;html=1;rotation=0;" vertex="1" parent="1">
          <mxGeometry x="-490" y="374" width="110" height="60" as="geometry" />
        </mxCell>
        <mxCell id="qvUMem5sqrkyn1ycQyFO-27" value="Remove Traveller Revision" style="ellipse;whiteSpace=wrap;html=1;rotation=0;" vertex="1" parent="1">
          <mxGeometry x="-490" y="446" width="110" height="60" as="geometry" />
        </mxCell>
        <mxCell id="qvUMem5sqrkyn1ycQyFO-28" value="&amp;lt;&amp;lt;extend&amp;gt;&amp;gt;" style="html=1;verticalAlign=bottom;labelBackgroundColor=none;endArrow=open;endFill=0;dashed=1;rounded=0;entryX=0;entryY=0.5;entryDx=0;entryDy=0;exitX=1;exitY=0;exitDx=0;exitDy=0;" edge="1" parent="1" source="qvUMem5sqrkyn1ycQyFO-9" target="qvUMem5sqrkyn1ycQyFO-25">
          <mxGeometry x="-0.1713" y="6" width="160" relative="1" as="geometry">
            <mxPoint x="-727" y="249" as="sourcePoint" />
            <mxPoint x="-567" y="249" as="targetPoint" />
            <mxPoint as="offset" />
          </mxGeometry>
        </mxCell>
        <mxCell id="qvUMem5sqrkyn1ycQyFO-31" value="&amp;lt;&amp;lt;extend&amp;gt;&amp;gt;" style="html=1;verticalAlign=bottom;labelBackgroundColor=none;endArrow=open;endFill=0;dashed=1;rounded=0;exitX=1;exitY=0;exitDx=0;exitDy=0;entryX=0;entryY=0.5;entryDx=0;entryDy=0;" edge="1" parent="1" source="qvUMem5sqrkyn1ycQyFO-8" target="qvUMem5sqrkyn1ycQyFO-26">
          <mxGeometry x="0.147" y="-22" width="160" relative="1" as="geometry">
            <mxPoint x="-510" y="366" as="sourcePoint" />
            <mxPoint x="-350" y="366" as="targetPoint" />
            <mxPoint as="offset" />
          </mxGeometry>
        </mxCell>
        <mxCell id="qvUMem5sqrkyn1ycQyFO-32" value="&amp;lt;&amp;lt;extend&amp;gt;&amp;gt;" style="html=1;verticalAlign=bottom;labelBackgroundColor=none;endArrow=open;endFill=0;dashed=1;rounded=0;exitX=1;exitY=1;exitDx=0;exitDy=0;entryX=0;entryY=0.5;entryDx=0;entryDy=0;" edge="1" parent="1" source="qvUMem5sqrkyn1ycQyFO-8" target="qvUMem5sqrkyn1ycQyFO-27">
          <mxGeometry x="0.258" y="6" width="160" relative="1" as="geometry">
            <mxPoint x="-233" y="419" as="sourcePoint" />
            <mxPoint x="-73" y="419" as="targetPoint" />
            <mxPoint as="offset" />
          </mxGeometry>
        </mxCell>
        <mxCell id="qvUMem5sqrkyn1ycQyFO-33" value="Update Listing" style="ellipse;whiteSpace=wrap;html=1;rotation=0;" vertex="1" parent="1">
          <mxGeometry x="-302" y="410" width="110" height="60" as="geometry" />
        </mxCell>
        <mxCell id="qvUMem5sqrkyn1ycQyFO-34" value="&amp;lt;&amp;lt;include&amp;gt;&amp;gt;" style="html=1;verticalAlign=bottom;labelBackgroundColor=none;endArrow=open;endFill=0;dashed=1;rounded=0;exitX=1;exitY=0.5;exitDx=0;exitDy=0;entryX=0;entryY=0;entryDx=0;entryDy=0;" edge="1" parent="1" source="qvUMem5sqrkyn1ycQyFO-26" target="qvUMem5sqrkyn1ycQyFO-33">
          <mxGeometry width="160" relative="1" as="geometry">
            <mxPoint x="-388" y="337" as="sourcePoint" />
            <mxPoint x="-228" y="337" as="targetPoint" />
          </mxGeometry>
        </mxCell>
        <mxCell id="qvUMem5sqrkyn1ycQyFO-35" value="&amp;lt;&amp;lt;include&amp;gt;&amp;gt;" style="html=1;verticalAlign=bottom;labelBackgroundColor=none;endArrow=open;endFill=0;dashed=1;rounded=0;exitX=1;exitY=0.5;exitDx=0;exitDy=0;entryX=0;entryY=1;entryDx=0;entryDy=0;" edge="1" parent="1" source="qvUMem5sqrkyn1ycQyFO-27" target="qvUMem5sqrkyn1ycQyFO-33">
          <mxGeometry width="160" relative="1" as="geometry">
            <mxPoint x="-307" y="485" as="sourcePoint" />
            <mxPoint x="-147" y="485" as="targetPoint" />
          </mxGeometry>
        </mxCell>
      </root>
    </mxGraphModel>
  </diagram>
</mxfile>
